# xmcd CD Database Entry
#
# Track frame offsets:
# 150
# 29495
# 55462
# 80295
# 105071
# 108170
# 137988
# 145505
# 178532
# 206023
# 231839
# 263529
#
# Disc length: 3707 seconds
#
# Revision: 2
# Processed by: cddbd v1.4b41PL1 Copyright (c) Steve Scherf et al.
# Submitted via: tcd 2.0b
#
DISCID=980e790c
DTITLE=Savage Aural Hotbed - The Strain and Force Handbook
DYEAR=1900
DGENRE=
TTITLE0=impulse sealer
TTITLE1=tiles
TTITLE2=scratchy-pipe
TTITLE3=steel hopper
TTITLE4=nitrogen blanket
TTITLE5=can of stu
TTITLE6=suspension system
TTITLE7=soot dilemma
TTITLE8=freon pods
TTITLE9=unlucky number
TTITLE10=wipe me
TTITLE11=in a cage remix
EXTD=
EXTT0=
EXTT1=
EXTT2=
EXTT3=
EXTT4=
EXTT5=
EXTT6=
EXTT7=
EXTT8=
EXTT9=
EXTT10=
EXTT11=
PLAYORDER=
